<svg width="332" height="332" viewBox="0 0 332 332" fill="none" xmlns="http://www.w3.org/2000/svg">
<g clip-path="url(#clip0_2010_539)">
<path d="M331.675 97.6089C330.897 79.9685 328.045 67.8408 323.958 57.3321C319.742 46.1773 313.257 36.1904 304.76 27.8883C296.457 19.4569 286.405 12.9054 275.379 8.75562C264.81 4.66916 252.745 1.81649 235.105 1.03872C217.333 0.195076 211.691 0 166.615 0C121.54 0 115.898 0.195076 98.1919 0.972846C80.5515 1.75062 68.4238 4.60582 57.9176 8.68975C46.7603 12.9054 36.7734 19.3911 28.4713 27.8883C20.0399 36.1904 13.491 46.2431 9.33862 57.2687C5.25216 67.8408 2.39949 79.9026 1.62172 97.543C0.778084 115.315 0.583008 120.957 0.583008 166.032C0.583008 211.108 0.778084 216.75 1.55585 234.456C2.33362 252.096 5.18883 264.224 9.27529 274.733C13.491 285.888 20.0399 295.874 28.4713 304.177C36.7734 312.608 46.8261 319.159 57.8517 323.309C68.4238 327.396 80.4856 330.248 98.1286 331.026C115.832 331.806 121.477 331.999 166.552 331.999C211.627 331.999 217.269 331.806 234.976 331.026C252.616 330.248 264.744 327.396 275.25 323.309C297.562 314.683 315.203 297.042 323.829 274.733C327.913 264.161 330.768 252.096 331.546 234.456C332.324 216.75 332.519 211.108 332.519 166.032C332.519 120.957 332.453 115.315 331.675 97.6089ZM301.778 233.159C301.063 249.373 298.34 258.129 296.07 263.966C290.491 278.429 279.012 289.908 264.549 295.487C258.712 297.757 249.893 300.48 233.742 301.192C216.231 301.972 210.979 302.165 166.681 302.165C122.384 302.165 117.066 301.972 99.6183 301.192C83.4042 300.48 74.6485 297.757 68.8115 295.487C61.6139 292.827 55.0624 288.611 49.7447 283.098C44.2319 277.715 40.0162 271.229 37.3561 264.031C35.0861 258.194 32.3627 249.373 31.6508 233.225C30.8705 215.713 30.6779 210.459 30.6779 166.162C30.6779 121.864 30.8705 116.546 31.6508 99.1011C32.3627 82.887 35.0861 74.1314 37.3561 68.2943C40.0162 61.0942 44.2319 54.5453 49.8106 49.225C55.1916 43.7122 61.6772 39.4965 68.8773 36.839C74.7144 34.569 83.5359 31.8455 99.6841 31.1311C117.195 30.3533 122.45 30.1582 166.745 30.1582C211.108 30.1582 216.36 30.3533 233.808 31.1311C250.022 31.8455 258.777 34.569 264.615 36.839C271.812 39.4965 278.364 43.7122 283.681 49.225C289.194 54.6086 293.41 61.0942 296.07 68.2943C298.34 74.1314 301.063 82.9503 301.778 99.1011C302.556 116.612 302.751 121.864 302.751 166.162C302.751 210.459 302.556 215.648 301.778 233.159Z" fill="white"/>
<path d="M166.615 80.7462C119.531 80.7462 81.3291 118.946 81.3291 166.032C81.3291 213.119 119.531 251.319 166.615 251.319C213.702 251.319 251.901 213.119 251.901 166.032C251.901 118.946 213.702 80.7462 166.615 80.7462ZM166.615 221.355C136.069 221.355 111.292 196.581 111.292 166.032C111.292 135.484 136.069 110.709 166.615 110.709C197.164 110.709 221.938 135.484 221.938 166.032C221.938 196.581 197.164 221.355 166.615 221.355Z" fill="white"/>
<path d="M275.187 77.3742C275.187 88.3693 266.271 97.2846 255.274 97.2846C244.279 97.2846 235.363 88.3693 235.363 77.3742C235.363 66.3764 244.279 57.4637 255.274 57.4637C266.271 57.4637 275.187 66.3764 275.187 77.3742Z" fill="white"/>
</g>
<defs>
<clipPath id="clip0_2010_539">
<rect width="332" height="332" fill="white"/>
</clipPath>
</defs>
</svg>
