<svg width="204" height="48" viewBox="0 0 204 48" fill="none" xmlns="http://www.w3.org/2000/svg">
<path d="M62.248 17.576H69.752V18.856H63.768V22.488H69.016V23.768H63.768V29H62.248V17.576ZM70.9555 17.576H78.8435V18.856H72.4755V22.488H78.4115V23.768H72.4755V27.72H78.8915V29H70.9555V17.576ZM80.2568 17.576H85.6328C86.7208 17.576 87.5688 17.8427 88.1768 18.376C88.7954 18.9093 89.1048 19.64 89.1048 20.568C89.1048 21.2613 88.9448 21.8693 88.6248 22.392C88.3154 22.9147 87.8141 23.272 87.1208 23.464V23.496C87.4514 23.56 87.7181 23.6667 87.9208 23.816C88.1341 23.9653 88.2994 24.1467 88.4168 24.36C88.5448 24.5627 88.6354 24.792 88.6888 25.048C88.7528 25.304 88.8008 25.5707 88.8328 25.848C88.8541 26.1253 88.8701 26.408 88.8808 26.696C88.8914 26.984 88.9181 27.2667 88.9608 27.544C89.0034 27.8213 89.0621 28.088 89.1368 28.344C89.2221 28.5893 89.3448 28.808 89.5048 29H87.8088C87.7021 28.8827 87.6274 28.7227 87.5848 28.52C87.5528 28.3173 87.5314 28.0933 87.5208 27.848C87.5101 27.592 87.4994 27.32 87.4888 27.032C87.4781 26.744 87.4461 26.4613 87.3928 26.184C87.3501 25.9067 87.2968 25.6453 87.2328 25.4C87.1688 25.144 87.0674 24.9253 86.9288 24.744C86.7901 24.552 86.6088 24.4027 86.3848 24.296C86.1608 24.1787 85.8621 24.12 85.4888 24.12H81.7768V29H80.2568V17.576ZM84.9448 22.84C85.2968 22.84 85.6328 22.8133 85.9528 22.76C86.2728 22.7067 86.5501 22.6053 86.7848 22.456C87.0301 22.296 87.2221 22.088 87.3608 21.832C87.5101 21.5653 87.5848 21.224 87.5848 20.808C87.5848 20.232 87.4248 19.7627 87.1048 19.4C86.7848 19.0373 86.2674 18.856 85.5528 18.856H81.7768V22.84H84.9448ZM90.7139 17.576H92.3299L98.3459 26.84H98.3779V17.576H99.8179V29H98.1539L92.1859 19.832H92.1539V29H90.7139V17.576ZM103.765 24.28H107.637L105.733 18.952H105.701L103.765 24.28ZM104.901 17.576H106.581L111.045 29H109.365L108.117 25.56H103.285L102.005 29H100.453L104.901 17.576ZM111.676 17.576H113.292L119.308 26.84H119.34V17.576H120.78V29H119.116L113.148 19.832H113.116V29H111.676V17.576ZM124.279 27.72H126.807C126.977 27.72 127.191 27.7093 127.447 27.688C127.703 27.656 127.975 27.592 128.263 27.496C128.551 27.3893 128.833 27.24 129.111 27.048C129.399 26.856 129.655 26.5947 129.879 26.264C130.103 25.9333 130.284 25.5227 130.423 25.032C130.572 24.5307 130.647 23.928 130.647 23.224C130.647 22.5413 130.577 21.9333 130.439 21.4C130.311 20.856 130.092 20.3973 129.783 20.024C129.484 19.64 129.095 19.352 128.615 19.16C128.135 18.9573 127.543 18.856 126.839 18.856H124.279V27.72ZM122.759 17.576H126.679C128.439 17.576 129.793 18.024 130.743 18.92C131.692 19.816 132.167 21.1813 132.167 23.016C132.167 23.976 132.06 24.8293 131.847 25.576C131.633 26.312 131.303 26.936 130.855 27.448C130.407 27.9493 129.836 28.3333 129.143 28.6C128.449 28.8667 127.628 29 126.679 29H122.759V17.576ZM133.544 17.576H141.432V18.856H135.064V22.488H141V23.768H135.064V27.72H141.48V29H133.544V17.576ZM149.454 20.92C149.368 20.0987 149.07 19.5067 148.558 19.144C148.056 18.7707 147.411 18.584 146.622 18.584C146.302 18.584 145.987 18.616 145.678 18.68C145.368 18.744 145.091 18.8507 144.846 19C144.611 19.1493 144.419 19.352 144.27 19.608C144.131 19.8533 144.062 20.1627 144.062 20.536C144.062 20.888 144.163 21.176 144.366 21.4C144.579 21.6133 144.856 21.7893 145.198 21.928C145.55 22.0667 145.944 22.184 146.382 22.28C146.819 22.3653 147.262 22.4613 147.71 22.568C148.168 22.6747 148.616 22.8027 149.054 22.952C149.491 23.0907 149.88 23.2827 150.222 23.528C150.574 23.7733 150.851 24.0827 151.054 24.456C151.267 24.8293 151.374 25.2987 151.374 25.864C151.374 26.472 151.235 26.9947 150.958 27.432C150.691 27.8587 150.344 28.2107 149.918 28.488C149.491 28.7547 149.011 28.9467 148.478 29.064C147.955 29.192 147.432 29.256 146.91 29.256C146.27 29.256 145.662 29.176 145.086 29.016C144.52 28.856 144.019 28.616 143.582 28.296C143.155 27.9653 142.814 27.5493 142.558 27.048C142.312 26.536 142.19 25.9333 142.19 25.24H143.63C143.63 25.72 143.72 26.136 143.902 26.488C144.094 26.8293 144.339 27.112 144.638 27.336C144.947 27.56 145.304 27.7253 145.71 27.832C146.115 27.9387 146.531 27.992 146.958 27.992C147.299 27.992 147.64 27.96 147.982 27.896C148.334 27.832 148.648 27.7253 148.926 27.576C149.203 27.416 149.427 27.2027 149.598 26.936C149.768 26.6693 149.854 26.328 149.854 25.912C149.854 25.5173 149.747 25.1973 149.534 24.952C149.331 24.7067 149.054 24.5093 148.702 24.36C148.36 24.2 147.971 24.072 147.534 23.976C147.096 23.88 146.648 23.784 146.19 23.688C145.742 23.5813 145.299 23.464 144.862 23.336C144.424 23.1973 144.03 23.0213 143.678 22.808C143.336 22.584 143.059 22.3013 142.846 21.96C142.643 21.608 142.542 21.1707 142.542 20.648C142.542 20.072 142.659 19.576 142.894 19.16C143.128 18.7333 143.438 18.3867 143.822 18.12C144.216 17.8427 144.659 17.64 145.15 17.512C145.651 17.3733 146.163 17.304 146.686 17.304C147.272 17.304 147.816 17.3733 148.318 17.512C148.819 17.6507 149.256 17.8693 149.63 18.168C150.014 18.4667 150.312 18.8453 150.526 19.304C150.75 19.752 150.872 20.2907 150.894 20.92H149.454ZM156.746 17.576H158.826L162.426 27.176L166.042 17.576H168.122V29H166.682V19.496H166.65L163.082 29H161.786L158.218 19.496H158.186V29H156.746V17.576ZM170.171 17.576H178.059V18.856H171.691V22.488H177.627V23.768H171.691V27.72H178.107V29H170.171V17.576ZM180.992 27.72H183.52C183.691 27.72 183.904 27.7093 184.16 27.688C184.416 27.656 184.688 27.592 184.976 27.496C185.264 27.3893 185.547 27.24 185.824 27.048C186.112 26.856 186.368 26.5947 186.592 26.264C186.816 25.9333 186.998 25.5227 187.136 25.032C187.286 24.5307 187.36 23.928 187.36 23.224C187.36 22.5413 187.291 21.9333 187.152 21.4C187.024 20.856 186.806 20.3973 186.496 20.024C186.198 19.64 185.808 19.352 185.328 19.16C184.848 18.9573 184.256 18.856 183.552 18.856H180.992V27.72ZM179.472 17.576H183.392C185.152 17.576 186.507 18.024 187.456 18.92C188.406 19.816 188.88 21.1813 188.88 23.016C188.88 23.976 188.774 24.8293 188.56 25.576C188.347 26.312 188.016 26.936 187.568 27.448C187.12 27.9493 186.55 28.3333 185.856 28.6C185.163 28.8667 184.342 29 183.392 29H179.472V17.576ZM190.322 17.576H191.842V29H190.322V17.576ZM195.887 24.28H199.759L197.855 18.952H197.823L195.887 24.28ZM197.023 17.576H198.703L203.167 29H201.487L200.239 25.56H195.407L194.127 29H192.575L197.023 17.576Z" fill="black"/>
<path d="M69.064 45H67.804L66.334 39.246H66.306L64.85 45H63.562L61.238 37.762H62.554L64.192 43.684H64.22L65.676 37.762H66.978L68.49 43.684H68.518L70.142 37.762H71.374L69.064 45ZM77.1114 40.688C77.0927 40.408 77.0274 40.142 76.9154 39.89C76.8127 39.638 76.668 39.4233 76.4814 39.246C76.304 39.0593 76.0894 38.9147 75.8374 38.812C75.5947 38.7 75.324 38.644 75.0254 38.644C74.7174 38.644 74.4374 38.7 74.1854 38.812C73.9427 38.9147 73.7327 39.0593 73.5554 39.246C73.378 39.4327 73.238 39.652 73.1354 39.904C73.0327 40.1467 72.972 40.408 72.9534 40.688H77.1114ZM78.2594 42.704C78.1007 43.516 77.7507 44.1273 77.2094 44.538C76.668 44.9487 75.9867 45.154 75.1654 45.154C74.5867 45.154 74.0827 45.0607 73.6534 44.874C73.2334 44.6873 72.8787 44.426 72.5894 44.09C72.3 43.754 72.0807 43.3527 71.9314 42.886C71.7914 42.4193 71.712 41.9107 71.6934 41.36C71.6934 40.8093 71.7774 40.3053 71.9454 39.848C72.1134 39.3907 72.3467 38.994 72.6454 38.658C72.9534 38.322 73.3127 38.0607 73.7234 37.874C74.1434 37.6873 74.6007 37.594 75.0954 37.594C75.7394 37.594 76.2714 37.7293 76.6914 38C77.1207 38.2613 77.4614 38.5973 77.7134 39.008C77.9747 39.4187 78.152 39.8667 78.2454 40.352C78.348 40.8373 78.39 41.2993 78.3714 41.738H72.9534C72.944 42.0553 72.9814 42.3587 73.0654 42.648C73.1494 42.928 73.2847 43.18 73.4714 43.404C73.658 43.6187 73.896 43.7913 74.1854 43.922C74.4747 44.0527 74.8154 44.118 75.2074 44.118C75.7114 44.118 76.122 44.0013 76.4394 43.768C76.766 43.5347 76.9807 43.18 77.0834 42.704H78.2594ZM79.2269 35.004H80.4169V38.742H80.4449C80.6409 38.3407 80.9489 38.0513 81.3689 37.874C81.7889 37.6873 82.2509 37.594 82.7549 37.594C83.3149 37.594 83.8002 37.6967 84.2109 37.902C84.6309 38.1073 84.9762 38.3873 85.2469 38.742C85.5269 39.0873 85.7369 39.4887 85.8769 39.946C86.0169 40.4033 86.0869 40.8887 86.0869 41.402C86.0869 41.9153 86.0169 42.4007 85.8769 42.858C85.7462 43.3153 85.5409 43.7167 85.2609 44.062C84.9902 44.398 84.6449 44.664 84.2249 44.86C83.8142 45.056 83.3336 45.154 82.7829 45.154C82.6056 45.154 82.4049 45.1353 82.1809 45.098C81.9662 45.0607 81.7516 45 81.5369 44.916C81.3222 44.832 81.1169 44.72 80.9209 44.58C80.7342 44.4307 80.5756 44.2487 80.4449 44.034H80.4169V45H79.2269V35.004ZM84.8269 41.318C84.8269 40.982 84.7802 40.6553 84.6869 40.338C84.6029 40.0113 84.4676 39.722 84.2809 39.47C84.1036 39.218 83.8702 39.0173 83.5809 38.868C83.3009 38.7187 82.9696 38.644 82.5869 38.644C82.1856 38.644 81.8449 38.7233 81.5649 38.882C81.2849 39.0407 81.0562 39.2507 80.8789 39.512C80.7016 39.764 80.5709 40.0533 80.4869 40.38C80.4122 40.7067 80.3749 41.038 80.3749 41.374C80.3749 41.7287 80.4169 42.074 80.5009 42.41C80.5849 42.7367 80.7156 43.026 80.8929 43.278C81.0796 43.53 81.3176 43.7353 81.6069 43.894C81.8962 44.0433 82.2462 44.118 82.6569 44.118C83.0676 44.118 83.4082 44.0387 83.6789 43.88C83.9589 43.7213 84.1829 43.5113 84.3509 43.25C84.5189 42.9887 84.6402 42.69 84.7149 42.354C84.7896 42.018 84.8269 41.6727 84.8269 41.318ZM87.7917 42.718C87.8011 42.9793 87.8617 43.2033 87.9737 43.39C88.0857 43.5673 88.2304 43.712 88.4077 43.824C88.5944 43.9267 88.7997 44.0013 89.0237 44.048C89.2571 44.0947 89.4951 44.118 89.7377 44.118C89.9244 44.118 90.1204 44.104 90.3257 44.076C90.5311 44.048 90.7177 43.9967 90.8857 43.922C91.0631 43.8473 91.2077 43.74 91.3197 43.6C91.4317 43.4507 91.4877 43.264 91.4877 43.04C91.4877 42.732 91.3711 42.4987 91.1377 42.34C90.9044 42.1813 90.6104 42.0553 90.2557 41.962C89.9104 41.8593 89.5324 41.7707 89.1217 41.696C88.7111 41.612 88.3284 41.5 87.9737 41.36C87.6284 41.2107 87.3391 41.0053 87.1057 40.744C86.8724 40.4827 86.7557 40.1187 86.7557 39.652C86.7557 39.288 86.8351 38.9753 86.9937 38.714C87.1617 38.4527 87.3717 38.2427 87.6237 38.084C87.8851 37.916 88.1744 37.7947 88.4917 37.72C88.8184 37.636 89.1404 37.594 89.4577 37.594C89.8684 37.594 90.2464 37.6313 90.5917 37.706C90.9371 37.7713 91.2404 37.8927 91.5017 38.07C91.7724 38.238 91.9871 38.4713 92.1457 38.77C92.3044 39.0593 92.3977 39.4233 92.4257 39.862H91.2357C91.2171 39.6287 91.1564 39.4373 91.0537 39.288C90.9511 39.1293 90.8204 39.0033 90.6617 38.91C90.5031 38.8167 90.3257 38.7513 90.1297 38.714C89.9431 38.6673 89.7517 38.644 89.5557 38.644C89.3784 38.644 89.1964 38.658 89.0097 38.686C88.8324 38.714 88.6691 38.7653 88.5197 38.84C88.3704 38.9053 88.2491 38.9987 88.1557 39.12C88.0624 39.232 88.0157 39.3813 88.0157 39.568C88.0157 39.7733 88.0857 39.946 88.2257 40.086C88.3751 40.2167 88.5617 40.3287 88.7857 40.422C89.0097 40.506 89.2617 40.5807 89.5417 40.646C89.8217 40.702 90.1017 40.7627 90.3817 40.828C90.6804 40.8933 90.9697 40.9727 91.2497 41.066C91.5391 41.1593 91.7911 41.2853 92.0057 41.444C92.2297 41.5933 92.4071 41.7847 92.5377 42.018C92.6777 42.2513 92.7477 42.5407 92.7477 42.886C92.7477 43.3247 92.6544 43.6887 92.4677 43.978C92.2904 44.2673 92.0524 44.5007 91.7537 44.678C91.4644 44.8553 91.1331 44.9767 90.7597 45.042C90.3957 45.1167 90.0317 45.154 89.6677 45.154C89.2664 45.154 88.8837 45.112 88.5197 45.028C88.1557 44.944 87.8337 44.8087 87.5537 44.622C87.2737 44.426 87.0497 44.174 86.8817 43.866C86.7137 43.5487 86.6204 43.166 86.6017 42.718H87.7917ZM94.9037 36.46H93.7137V35.004H94.9037V36.46ZM93.7137 37.762H94.9037V45H93.7137V37.762ZM97.9793 37.762H99.4213V38.812H97.9793V43.306C97.9793 43.446 97.9886 43.558 98.0073 43.642C98.0353 43.726 98.0819 43.7913 98.1473 43.838C98.2126 43.8847 98.3013 43.9173 98.4133 43.936C98.5346 43.9453 98.6886 43.95 98.8753 43.95H99.4213V45H98.5113C98.2033 45 97.9373 44.9813 97.7133 44.944C97.4986 44.8973 97.3213 44.818 97.1813 44.706C97.0506 44.594 96.9526 44.4353 96.8873 44.23C96.8219 44.0247 96.7893 43.754 96.7893 43.418V38.812H95.5573V37.762H96.7893V35.592H97.9793V37.762ZM105.349 40.688C105.331 40.408 105.265 40.142 105.153 39.89C105.051 39.638 104.906 39.4233 104.719 39.246C104.542 39.0593 104.327 38.9147 104.075 38.812C103.833 38.7 103.562 38.644 103.263 38.644C102.955 38.644 102.675 38.7 102.423 38.812C102.181 38.9147 101.971 39.0593 101.793 39.246C101.616 39.4327 101.476 39.652 101.373 39.904C101.271 40.1467 101.21 40.408 101.191 40.688H105.349ZM106.497 42.704C106.339 43.516 105.989 44.1273 105.447 44.538C104.906 44.9487 104.225 45.154 103.403 45.154C102.825 45.154 102.321 45.0607 101.891 44.874C101.471 44.6873 101.117 44.426 100.827 44.09C100.538 43.754 100.319 43.3527 100.169 42.886C100.029 42.4193 99.9499 41.9107 99.9313 41.36C99.9313 40.8093 100.015 40.3053 100.183 39.848C100.351 39.3907 100.585 38.994 100.883 38.658C101.191 38.322 101.551 38.0607 101.961 37.874C102.381 37.6873 102.839 37.594 103.333 37.594C103.977 37.594 104.509 37.7293 104.929 38C105.359 38.2613 105.699 38.5973 105.951 39.008C106.213 39.4187 106.39 39.8667 106.483 40.352C106.586 40.8373 106.628 41.2993 106.609 41.738H101.191C101.182 42.0553 101.219 42.3587 101.303 42.648C101.387 42.928 101.523 43.18 101.709 43.404C101.896 43.6187 102.134 43.7913 102.423 43.922C102.713 44.0527 103.053 44.118 103.445 44.118C103.949 44.118 104.36 44.0013 104.677 43.768C105.004 43.5347 105.219 43.18 105.321 42.704H106.497ZM111.767 41.444C111.767 41.78 111.809 42.1113 111.893 42.438C111.987 42.7553 112.122 43.04 112.299 43.292C112.486 43.544 112.719 43.7447 112.999 43.894C113.289 44.0433 113.625 44.118 114.007 44.118C114.409 44.118 114.749 44.0387 115.029 43.88C115.309 43.7213 115.538 43.516 115.715 43.264C115.893 43.0027 116.019 42.7087 116.093 42.382C116.177 42.0553 116.219 41.724 116.219 41.388C116.219 41.0333 116.177 40.6927 116.093 40.366C116.009 40.03 115.874 39.736 115.687 39.484C115.51 39.232 115.277 39.0313 114.987 38.882C114.698 38.7233 114.348 38.644 113.937 38.644C113.536 38.644 113.195 38.7233 112.915 38.882C112.635 39.0407 112.411 39.2507 112.243 39.512C112.075 39.7733 111.954 40.072 111.879 40.408C111.805 40.744 111.767 41.0893 111.767 41.444ZM117.367 45H116.177V44.02H116.149C115.953 44.4213 115.645 44.7107 115.225 44.888C114.805 45.0653 114.343 45.154 113.839 45.154C113.279 45.154 112.789 45.0513 112.369 44.846C111.959 44.6407 111.613 44.3653 111.333 44.02C111.063 43.6747 110.857 43.2733 110.717 42.816C110.577 42.3587 110.507 41.8733 110.507 41.36C110.507 40.8467 110.573 40.3613 110.703 39.904C110.843 39.4467 111.049 39.05 111.319 38.714C111.599 38.3687 111.945 38.098 112.355 37.902C112.775 37.6967 113.261 37.594 113.811 37.594C113.998 37.594 114.199 37.6127 114.413 37.65C114.628 37.6873 114.843 37.7527 115.057 37.846C115.272 37.93 115.473 38.0467 115.659 38.196C115.855 38.336 116.019 38.5133 116.149 38.728H116.177V35.004H117.367V45ZM123.804 40.688C123.785 40.408 123.72 40.142 123.608 39.89C123.505 39.638 123.361 39.4233 123.174 39.246C122.997 39.0593 122.782 38.9147 122.53 38.812C122.287 38.7 122.017 38.644 121.718 38.644C121.41 38.644 121.13 38.7 120.878 38.812C120.635 38.9147 120.425 39.0593 120.248 39.246C120.071 39.4327 119.931 39.652 119.828 39.904C119.725 40.1467 119.665 40.408 119.646 40.688H123.804ZM124.952 42.704C124.793 43.516 124.443 44.1273 123.902 44.538C123.361 44.9487 122.679 45.154 121.858 45.154C121.279 45.154 120.775 45.0607 120.346 44.874C119.926 44.6873 119.571 44.426 119.282 44.09C118.993 43.754 118.773 43.3527 118.624 42.886C118.484 42.4193 118.405 41.9107 118.386 41.36C118.386 40.8093 118.47 40.3053 118.638 39.848C118.806 39.3907 119.039 38.994 119.338 38.658C119.646 38.322 120.005 38.0607 120.416 37.874C120.836 37.6873 121.293 37.594 121.788 37.594C122.432 37.594 122.964 37.7293 123.384 38C123.813 38.2613 124.154 38.5973 124.406 39.008C124.667 39.4187 124.845 39.8667 124.938 40.352C125.041 40.8373 125.083 41.2993 125.064 41.738H119.646C119.637 42.0553 119.674 42.3587 119.758 42.648C119.842 42.928 119.977 43.18 120.164 43.404C120.351 43.6187 120.589 43.7913 120.878 43.922C121.167 44.0527 121.508 44.118 121.9 44.118C122.404 44.118 122.815 44.0013 123.132 43.768C123.459 43.5347 123.673 43.18 123.776 42.704H124.952ZM129.14 45H127.866L125.178 37.762H126.508L128.538 43.796H128.566L130.54 37.762H131.786L129.14 45ZM137.484 40.688C137.465 40.408 137.4 40.142 137.288 39.89C137.185 39.638 137.04 39.4233 136.854 39.246C136.676 39.0593 136.462 38.9147 136.21 38.812C135.967 38.7 135.696 38.644 135.398 38.644C135.09 38.644 134.81 38.7 134.558 38.812C134.315 38.9147 134.105 39.0593 133.928 39.246C133.75 39.4327 133.61 39.652 133.508 39.904C133.405 40.1467 133.344 40.408 133.326 40.688H137.484ZM138.632 42.704C138.473 43.516 138.123 44.1273 137.582 44.538C137.04 44.9487 136.359 45.154 135.538 45.154C134.959 45.154 134.455 45.0607 134.026 44.874C133.606 44.6873 133.251 44.426 132.962 44.09C132.672 43.754 132.453 43.3527 132.304 42.886C132.164 42.4193 132.084 41.9107 132.066 41.36C132.066 40.8093 132.15 40.3053 132.318 39.848C132.486 39.3907 132.719 38.994 133.018 38.658C133.326 38.322 133.685 38.0607 134.096 37.874C134.516 37.6873 134.973 37.594 135.468 37.594C136.112 37.594 136.644 37.7293 137.064 38C137.493 38.2613 137.834 38.5973 138.086 39.008C138.347 39.4187 138.524 39.8667 138.618 40.352C138.72 40.8373 138.762 41.2993 138.744 41.738H133.326C133.316 42.0553 133.354 42.3587 133.438 42.648C133.522 42.928 133.657 43.18 133.844 43.404C134.03 43.6187 134.268 43.7913 134.558 43.922C134.847 44.0527 135.188 44.118 135.58 44.118C136.084 44.118 136.494 44.0013 136.812 43.768C137.138 43.5347 137.353 43.18 137.456 42.704H138.632ZM139.627 35.004H140.817V45H139.627V35.004ZM143.109 41.388C143.109 41.8267 143.165 42.2187 143.277 42.564C143.398 42.9 143.561 43.1847 143.767 43.418C143.972 43.642 144.21 43.8147 144.481 43.936C144.761 44.0573 145.055 44.118 145.363 44.118C145.671 44.118 145.96 44.0573 146.231 43.936C146.511 43.8147 146.753 43.642 146.959 43.418C147.164 43.1847 147.323 42.9 147.435 42.564C147.556 42.2187 147.617 41.8267 147.617 41.388C147.617 40.9493 147.556 40.562 147.435 40.226C147.323 39.8807 147.164 39.5913 146.959 39.358C146.753 39.1247 146.511 38.9473 146.231 38.826C145.96 38.7047 145.671 38.644 145.363 38.644C145.055 38.644 144.761 38.7047 144.481 38.826C144.21 38.9473 143.972 39.1247 143.767 39.358C143.561 39.5913 143.398 39.8807 143.277 40.226C143.165 40.562 143.109 40.9493 143.109 41.388ZM141.849 41.388C141.849 40.856 141.923 40.3613 142.073 39.904C142.222 39.4373 142.446 39.036 142.745 38.7C143.043 38.3547 143.412 38.084 143.851 37.888C144.289 37.692 144.793 37.594 145.363 37.594C145.941 37.594 146.445 37.692 146.875 37.888C147.313 38.084 147.682 38.3547 147.981 38.7C148.279 39.036 148.503 39.4373 148.653 39.904C148.802 40.3613 148.877 40.856 148.877 41.388C148.877 41.92 148.802 42.4147 148.653 42.872C148.503 43.3293 148.279 43.7307 147.981 44.076C147.682 44.412 147.313 44.678 146.875 44.874C146.445 45.0607 145.941 45.154 145.363 45.154C144.793 45.154 144.289 45.0607 143.851 44.874C143.412 44.678 143.043 44.412 142.745 44.076C142.446 43.7307 142.222 43.3293 142.073 42.872C141.923 42.4147 141.849 41.92 141.849 41.388ZM149.902 37.762H151.092V38.742H151.12C151.316 38.3407 151.624 38.0513 152.044 37.874C152.464 37.6873 152.926 37.594 153.43 37.594C153.99 37.594 154.475 37.6967 154.886 37.902C155.306 38.1073 155.651 38.3873 155.922 38.742C156.202 39.0873 156.412 39.4887 156.552 39.946C156.692 40.4033 156.762 40.8887 156.762 41.402C156.762 41.9153 156.692 42.4007 156.552 42.858C156.421 43.3153 156.216 43.7167 155.936 44.062C155.665 44.398 155.32 44.664 154.9 44.86C154.489 45.056 154.008 45.154 153.458 45.154C153.28 45.154 153.08 45.1353 152.856 45.098C152.641 45.0607 152.426 45 152.212 44.916C151.997 44.832 151.792 44.72 151.596 44.58C151.409 44.4307 151.25 44.2487 151.12 44.034H151.092V47.758H149.902V37.762ZM155.502 41.318C155.502 40.982 155.455 40.6553 155.362 40.338C155.278 40.0113 155.142 39.722 154.956 39.47C154.778 39.218 154.545 39.0173 154.256 38.868C153.976 38.7187 153.644 38.644 153.262 38.644C152.86 38.644 152.52 38.7233 152.24 38.882C151.96 39.0407 151.731 39.2507 151.554 39.512C151.376 39.764 151.246 40.0533 151.162 40.38C151.087 40.7067 151.05 41.038 151.05 41.374C151.05 41.7287 151.092 42.074 151.176 42.41C151.26 42.7367 151.39 43.026 151.568 43.278C151.754 43.53 151.992 43.7353 152.282 43.894C152.571 44.0433 152.921 44.118 153.332 44.118C153.742 44.118 154.083 44.0387 154.354 43.88C154.634 43.7213 154.858 43.5113 155.026 43.25C155.194 42.9887 155.315 42.69 155.39 42.354C155.464 42.018 155.502 41.6727 155.502 41.318ZM157.739 37.762H158.859V38.826H158.887C159.428 38.0047 160.207 37.594 161.225 37.594C161.673 37.594 162.079 37.6873 162.443 37.874C162.807 38.0607 163.063 38.378 163.213 38.826C163.455 38.434 163.773 38.1307 164.165 37.916C164.566 37.7013 165.005 37.594 165.481 37.594C165.845 37.594 166.171 37.636 166.461 37.72C166.759 37.7947 167.011 37.916 167.217 38.084C167.431 38.252 167.595 38.4713 167.707 38.742C167.828 39.0033 167.889 39.3207 167.889 39.694V45H166.699V40.254C166.699 40.03 166.68 39.82 166.643 39.624C166.605 39.428 166.535 39.26 166.433 39.12C166.33 38.9707 166.185 38.854 165.999 38.77C165.821 38.686 165.588 38.644 165.299 38.644C164.711 38.644 164.249 38.812 163.913 39.148C163.577 39.484 163.409 39.932 163.409 40.492V45H162.219V40.254C162.219 40.0207 162.195 39.806 162.149 39.61C162.111 39.414 162.041 39.246 161.939 39.106C161.836 38.9567 161.696 38.8447 161.519 38.77C161.351 38.686 161.131 38.644 160.861 38.644C160.515 38.644 160.217 38.714 159.965 38.854C159.722 38.994 159.521 39.162 159.363 39.358C159.213 39.554 159.101 39.7593 159.027 39.974C158.961 40.1793 158.929 40.352 158.929 40.492V45H157.739V37.762ZM174.28 40.688C174.261 40.408 174.196 40.142 174.084 39.89C173.981 39.638 173.837 39.4233 173.65 39.246C173.473 39.0593 173.258 38.9147 173.006 38.812C172.763 38.7 172.493 38.644 172.194 38.644C171.886 38.644 171.606 38.7 171.354 38.812C171.111 38.9147 170.901 39.0593 170.724 39.246C170.547 39.4327 170.407 39.652 170.304 39.904C170.201 40.1467 170.141 40.408 170.122 40.688H174.28ZM175.428 42.704C175.269 43.516 174.919 44.1273 174.378 44.538C173.837 44.9487 173.155 45.154 172.334 45.154C171.755 45.154 171.251 45.0607 170.822 44.874C170.402 44.6873 170.047 44.426 169.758 44.09C169.469 43.754 169.249 43.3527 169.1 42.886C168.96 42.4193 168.881 41.9107 168.862 41.36C168.862 40.8093 168.946 40.3053 169.114 39.848C169.282 39.3907 169.515 38.994 169.814 38.658C170.122 38.322 170.481 38.0607 170.892 37.874C171.312 37.6873 171.769 37.594 172.264 37.594C172.908 37.594 173.44 37.7293 173.86 38C174.289 38.2613 174.63 38.5973 174.882 39.008C175.143 39.4187 175.321 39.8667 175.414 40.352C175.517 40.8373 175.559 41.2993 175.54 41.738H170.122C170.113 42.0553 170.15 42.3587 170.234 42.648C170.318 42.928 170.453 43.18 170.64 43.404C170.827 43.6187 171.065 43.7913 171.354 43.922C171.643 44.0527 171.984 44.118 172.376 44.118C172.88 44.118 173.291 44.0013 173.608 43.768C173.935 43.5347 174.149 43.18 174.252 42.704H175.428ZM176.354 37.762H177.474V38.91H177.502C177.996 38.0327 178.78 37.594 179.854 37.594C180.33 37.594 180.726 37.6593 181.044 37.79C181.361 37.9207 181.618 38.1027 181.814 38.336C182.01 38.5693 182.145 38.8493 182.22 39.176C182.304 39.4933 182.346 39.848 182.346 40.24V45H181.156V40.1C181.156 39.652 181.025 39.2973 180.764 39.036C180.502 38.7747 180.143 38.644 179.686 38.644C179.322 38.644 179.004 38.7 178.734 38.812C178.472 38.924 178.253 39.0827 178.076 39.288C177.898 39.4933 177.763 39.736 177.67 40.016C177.586 40.2867 177.544 40.5853 177.544 40.912V45H176.354V37.762ZM185.365 37.762H186.807V38.812H185.365V43.306C185.365 43.446 185.374 43.558 185.393 43.642C185.421 43.726 185.468 43.7913 185.533 43.838C185.598 43.8847 185.687 43.9173 185.799 43.936C185.92 43.9453 186.074 43.95 186.261 43.95H186.807V45H185.897C185.589 45 185.323 44.9813 185.099 44.944C184.884 44.8973 184.707 44.818 184.567 44.706C184.436 44.594 184.338 44.4353 184.273 44.23C184.208 44.0247 184.175 43.754 184.175 43.418V38.812H182.943V37.762H184.175V35.592H185.365V37.762Z" fill="black"/>
<circle cx="18" cy="26" r="16.5" stroke="black" stroke-width="3"/>
<circle cx="37" cy="26" r="16.5" stroke="black" stroke-width="3"/>
</svg>
