<svg width="538" height="43" viewBox="0 0 538 43" fill="none" xmlns="http://www.w3.org/2000/svg">
<path d="M49.092 19.004H55.658V20.124H50.422V23.302H55.014V24.422H50.422V29H49.092V19.004ZM56.7111 19.004H63.6131V20.124H58.0411V23.302H63.2351V24.422H58.0411V27.88H63.6551V29H56.7111V19.004ZM64.8497 19.004H69.5537C70.5057 19.004 71.2477 19.2373 71.7797 19.704C72.321 20.1707 72.5917 20.81 72.5917 21.622C72.5917 22.2287 72.4517 22.7607 72.1717 23.218C71.901 23.6753 71.4623 23.988 70.8557 24.156V24.184C71.145 24.24 71.3783 24.3333 71.5557 24.464C71.7423 24.5947 71.887 24.7533 71.9897 24.94C72.1017 25.1173 72.181 25.318 72.2277 25.542C72.2837 25.766 72.3257 25.9993 72.3537 26.242C72.3723 26.4847 72.3863 26.732 72.3957 26.984C72.405 27.236 72.4283 27.4833 72.4657 27.726C72.503 27.9687 72.5543 28.202 72.6197 28.426C72.6943 28.6407 72.8017 28.832 72.9417 29H71.4577C71.3643 28.8973 71.299 28.7573 71.2617 28.58C71.2337 28.4027 71.215 28.2067 71.2057 27.992C71.1963 27.768 71.187 27.53 71.1777 27.278C71.1683 27.026 71.1403 26.7787 71.0937 26.536C71.0563 26.2933 71.0097 26.0647 70.9537 25.85C70.8977 25.626 70.809 25.4347 70.6877 25.276C70.5663 25.108 70.4077 24.9773 70.2117 24.884C70.0157 24.7813 69.7543 24.73 69.4277 24.73H66.1797V29H64.8497V19.004ZM68.9517 23.61C69.2597 23.61 69.5537 23.5867 69.8337 23.54C70.1137 23.4933 70.3563 23.4047 70.5617 23.274C70.7763 23.134 70.9443 22.952 71.0657 22.728C71.1963 22.4947 71.2617 22.196 71.2617 21.832C71.2617 21.328 71.1217 20.9173 70.8417 20.6C70.5617 20.2827 70.109 20.124 69.4837 20.124H66.1797V23.61H68.9517ZM73.9996 19.004H75.4136L80.6776 27.11H80.7056V19.004H81.9656V29H80.5096L75.2876 20.978H75.2596V29H73.9996V19.004ZM85.4192 24.87H88.8072L87.1412 20.208H87.1132L85.4192 24.87ZM86.4132 19.004H87.8832L91.7892 29H90.3192L89.2272 25.99H84.9992L83.8792 29H82.5212L86.4132 19.004ZM92.3413 19.004H93.7553L99.0193 27.11H99.0473V19.004H100.307V29H98.8513L93.6293 20.978H93.6013V29H92.3413V19.004ZM103.369 27.88H105.581C105.73 27.88 105.917 27.8707 106.141 27.852C106.365 27.824 106.603 27.768 106.855 27.684C107.107 27.5907 107.354 27.46 107.597 27.292C107.849 27.124 108.073 26.8953 108.269 26.606C108.465 26.3167 108.623 25.9573 108.745 25.528C108.875 25.0893 108.941 24.562 108.941 23.946C108.941 23.3487 108.88 22.8167 108.759 22.35C108.647 21.874 108.455 21.4727 108.185 21.146C107.923 20.81 107.583 20.558 107.163 20.39C106.743 20.2127 106.225 20.124 105.609 20.124H103.369V27.88ZM102.039 19.004H105.469C107.009 19.004 108.194 19.396 109.025 20.18C109.855 20.964 110.271 22.1587 110.271 23.764C110.271 24.604 110.177 25.3507 109.991 26.004C109.804 26.648 109.515 27.194 109.123 27.642C108.731 28.0807 108.231 28.4167 107.625 28.65C107.018 28.8833 106.299 29 105.469 29H102.039V19.004ZM111.476 19.004H118.378V20.124H112.806V23.302H118V24.422H112.806V27.88H118.42V29H111.476V19.004ZM125.397 21.93C125.322 21.2113 125.061 20.6933 124.613 20.376C124.174 20.0493 123.609 19.886 122.919 19.886C122.639 19.886 122.363 19.914 122.093 19.97C121.822 20.026 121.579 20.1193 121.365 20.25C121.159 20.3807 120.991 20.558 120.861 20.782C120.739 20.9967 120.679 21.2673 120.679 21.594C120.679 21.902 120.767 22.154 120.945 22.35C121.131 22.5367 121.374 22.6907 121.673 22.812C121.981 22.9333 122.326 23.036 122.709 23.12C123.091 23.1947 123.479 23.2787 123.871 23.372C124.272 23.4653 124.664 23.5773 125.047 23.708C125.429 23.8293 125.77 23.9973 126.069 24.212C126.377 24.4267 126.619 24.6973 126.797 25.024C126.983 25.3507 127.077 25.7613 127.077 26.256C127.077 26.788 126.955 27.2453 126.713 27.628C126.479 28.0013 126.176 28.3093 125.803 28.552C125.429 28.7853 125.009 28.9533 124.543 29.056C124.085 29.168 123.628 29.224 123.171 29.224C122.611 29.224 122.079 29.154 121.575 29.014C121.08 28.874 120.641 28.664 120.259 28.384C119.885 28.0947 119.587 27.7307 119.363 27.292C119.148 26.844 119.041 26.3167 119.041 25.71H120.301C120.301 26.13 120.38 26.494 120.539 26.802C120.707 27.1007 120.921 27.348 121.183 27.544C121.453 27.74 121.766 27.8847 122.121 27.978C122.475 28.0713 122.839 28.118 123.213 28.118C123.511 28.118 123.81 28.09 124.109 28.034C124.417 27.978 124.692 27.8847 124.935 27.754C125.177 27.614 125.373 27.4273 125.523 27.194C125.672 26.9607 125.747 26.662 125.747 26.298C125.747 25.9527 125.653 25.6727 125.467 25.458C125.289 25.2433 125.047 25.0707 124.739 24.94C124.44 24.8 124.099 24.688 123.717 24.604C123.334 24.52 122.942 24.436 122.541 24.352C122.149 24.2587 121.761 24.156 121.379 24.044C120.996 23.9227 120.651 23.7687 120.343 23.582C120.044 23.386 119.801 23.1387 119.615 22.84C119.437 22.532 119.349 22.1493 119.349 21.692C119.349 21.188 119.451 20.754 119.657 20.39C119.862 20.0167 120.133 19.7133 120.469 19.48C120.814 19.2373 121.201 19.06 121.631 18.948C122.069 18.8267 122.517 18.766 122.975 18.766C123.488 18.766 123.964 18.8267 124.403 18.948C124.841 19.0693 125.224 19.2607 125.551 19.522C125.887 19.7833 126.148 20.1147 126.335 20.516C126.531 20.908 126.638 21.3793 126.657 21.93H125.397ZM131.777 19.004H133.597L136.747 27.404L139.911 19.004H141.731V29H140.471V20.684H140.443L137.321 29H136.187L133.065 20.684H133.037V29H131.777V19.004ZM143.525 19.004H150.427V20.124H144.855V23.302H150.049V24.422H144.855V27.88H150.469V29H143.525V19.004ZM152.993 27.88H155.205C155.355 27.88 155.541 27.8707 155.765 27.852C155.989 27.824 156.227 27.768 156.479 27.684C156.731 27.5907 156.979 27.46 157.221 27.292C157.473 27.124 157.697 26.8953 157.893 26.606C158.089 26.3167 158.248 25.9573 158.369 25.528C158.5 25.0893 158.565 24.562 158.565 23.946C158.565 23.3487 158.505 22.8167 158.383 22.35C158.271 21.874 158.08 21.4727 157.809 21.146C157.548 20.81 157.207 20.558 156.787 20.39C156.367 20.2127 155.849 20.124 155.233 20.124H152.993V27.88ZM151.663 19.004H155.093C156.633 19.004 157.819 19.396 158.649 20.18C159.48 20.964 159.895 22.1587 159.895 23.764C159.895 24.604 159.802 25.3507 159.615 26.004C159.429 26.648 159.139 27.194 158.747 27.642C158.355 28.0807 157.856 28.4167 157.249 28.65C156.643 28.8833 155.924 29 155.093 29H151.663V19.004ZM161.157 19.004H162.487V29H161.157V19.004ZM166.026 24.87H169.414L167.748 20.208H167.72L166.026 24.87ZM167.02 19.004H168.49L172.396 29H170.926L169.834 25.99H165.606L164.486 29H163.128L167.02 19.004Z" fill="black"/>
<path d="M54.76 40H53.86L52.81 35.89H52.79L51.75 40H50.83L49.17 34.83H50.11L51.28 39.06H51.3L52.34 34.83H53.27L54.35 39.06H54.37L55.53 34.83H56.41L54.76 40ZM60.5081 36.92C60.4948 36.72 60.4481 36.53 60.3681 36.35C60.2948 36.17 60.1915 36.0167 60.0581 35.89C59.9315 35.7567 59.7781 35.6533 59.5981 35.58C59.4248 35.5 59.2315 35.46 59.0181 35.46C58.7981 35.46 58.5981 35.5 58.4181 35.58C58.2448 35.6533 58.0948 35.7567 57.9681 35.89C57.8415 36.0233 57.7415 36.18 57.6681 36.36C57.5948 36.5333 57.5515 36.72 57.5381 36.92H60.5081ZM61.3281 38.36C61.2148 38.94 60.9648 39.3767 60.5781 39.67C60.1915 39.9633 59.7048 40.11 59.1181 40.11C58.7048 40.11 58.3448 40.0433 58.0381 39.91C57.7381 39.7767 57.4848 39.59 57.2781 39.35C57.0715 39.11 56.9148 38.8233 56.8081 38.49C56.7081 38.1567 56.6515 37.7933 56.6381 37.4C56.6381 37.0067 56.6981 36.6467 56.8181 36.32C56.9381 35.9933 57.1048 35.71 57.3181 35.47C57.5381 35.23 57.7948 35.0433 58.0881 34.91C58.3881 34.7767 58.7148 34.71 59.0681 34.71C59.5281 34.71 59.9081 34.8067 60.2081 35C60.5148 35.1867 60.7581 35.4267 60.9381 35.72C61.1248 36.0133 61.2515 36.3333 61.3181 36.68C61.3915 37.0267 61.4215 37.3567 61.4081 37.67H57.5381C57.5315 37.8967 57.5581 38.1133 57.6181 38.32C57.6781 38.52 57.7748 38.7 57.9081 38.86C58.0415 39.0133 58.2115 39.1367 58.4181 39.23C58.6248 39.3233 58.8681 39.37 59.1481 39.37C59.5081 39.37 59.8015 39.2867 60.0281 39.12C60.2615 38.9533 60.4148 38.7 60.4881 38.36H61.3281ZM62.0192 32.86H62.8692V35.53H62.8892C63.0292 35.2433 63.2492 35.0367 63.5492 34.91C63.8492 34.7767 64.1792 34.71 64.5392 34.71C64.9392 34.71 65.2859 34.7833 65.5792 34.93C65.8792 35.0767 66.1259 35.2767 66.3192 35.53C66.5192 35.7767 66.6692 36.0633 66.7692 36.39C66.8692 36.7167 66.9192 37.0633 66.9192 37.43C66.9192 37.7967 66.8692 38.1433 66.7692 38.47C66.6759 38.7967 66.5292 39.0833 66.3292 39.33C66.1359 39.57 65.8892 39.76 65.5892 39.9C65.2959 40.04 64.9526 40.11 64.5592 40.11C64.4326 40.11 64.2892 40.0967 64.1292 40.07C63.9759 40.0433 63.8226 40 63.6692 39.94C63.5159 39.88 63.3692 39.8 63.2292 39.7C63.0959 39.5933 62.9826 39.4633 62.8892 39.31H62.8692V40H62.0192V32.86ZM66.0192 37.37C66.0192 37.13 65.9859 36.8967 65.9192 36.67C65.8592 36.4367 65.7626 36.23 65.6292 36.05C65.5026 35.87 65.3359 35.7267 65.1292 35.62C64.9292 35.5133 64.6926 35.46 64.4192 35.46C64.1326 35.46 63.8892 35.5167 63.6892 35.63C63.4892 35.7433 63.3259 35.8933 63.1992 36.08C63.0726 36.26 62.9792 36.4667 62.9192 36.7C62.8659 36.9333 62.8392 37.17 62.8392 37.41C62.8392 37.6633 62.8692 37.91 62.9292 38.15C62.9892 38.3833 63.0826 38.59 63.2092 38.77C63.3426 38.95 63.5126 39.0967 63.7192 39.21C63.9259 39.3167 64.1759 39.37 64.4692 39.37C64.7626 39.37 65.0059 39.3133 65.1992 39.2C65.3992 39.0867 65.5592 38.9367 65.6792 38.75C65.7992 38.5633 65.8859 38.35 65.9392 38.11C65.9926 37.87 66.0192 37.6233 66.0192 37.37ZM68.137 38.37C68.1436 38.5567 68.187 38.7167 68.267 38.85C68.347 38.9767 68.4503 39.08 68.577 39.16C68.7103 39.2333 68.857 39.2867 69.017 39.32C69.1836 39.3533 69.3536 39.37 69.527 39.37C69.6603 39.37 69.8003 39.36 69.947 39.34C70.0936 39.32 70.227 39.2833 70.347 39.23C70.4736 39.1767 70.577 39.1 70.657 39C70.737 38.8933 70.777 38.76 70.777 38.6C70.777 38.38 70.6936 38.2133 70.527 38.1C70.3603 37.9867 70.1503 37.8967 69.897 37.83C69.6503 37.7567 69.3803 37.6933 69.087 37.64C68.7936 37.58 68.5203 37.5 68.267 37.4C68.0203 37.2933 67.8136 37.1467 67.647 36.96C67.4803 36.7733 67.397 36.5133 67.397 36.18C67.397 35.92 67.4536 35.6967 67.567 35.51C67.687 35.3233 67.837 35.1733 68.017 35.06C68.2036 34.94 68.4103 34.8533 68.637 34.8C68.8703 34.74 69.1003 34.71 69.327 34.71C69.6203 34.71 69.8903 34.7367 70.137 34.79C70.3836 34.8367 70.6003 34.9233 70.787 35.05C70.9803 35.17 71.1336 35.3367 71.247 35.55C71.3603 35.7567 71.427 36.0167 71.447 36.33H70.597C70.5836 36.1633 70.5403 36.0267 70.467 35.92C70.3936 35.8067 70.3003 35.7167 70.187 35.65C70.0736 35.5833 69.947 35.5367 69.807 35.51C69.6736 35.4767 69.537 35.46 69.397 35.46C69.2703 35.46 69.1403 35.47 69.007 35.49C68.8803 35.51 68.7636 35.5467 68.657 35.6C68.5503 35.6467 68.4636 35.7133 68.397 35.8C68.3303 35.88 68.297 35.9867 68.297 36.12C68.297 36.2667 68.347 36.39 68.447 36.49C68.5536 36.5833 68.687 36.6633 68.847 36.73C69.007 36.79 69.187 36.8433 69.387 36.89C69.587 36.93 69.787 36.9733 69.987 37.02C70.2003 37.0667 70.407 37.1233 70.607 37.19C70.8136 37.2567 70.9936 37.3467 71.147 37.46C71.307 37.5667 71.4336 37.7033 71.527 37.87C71.627 38.0367 71.677 38.2433 71.677 38.49C71.677 38.8033 71.6103 39.0633 71.477 39.27C71.3503 39.4767 71.1803 39.6433 70.967 39.77C70.7603 39.8967 70.5236 39.9833 70.257 40.03C69.997 40.0833 69.737 40.11 69.477 40.11C69.1903 40.11 68.917 40.08 68.657 40.02C68.397 39.96 68.167 39.8633 67.967 39.73C67.767 39.59 67.607 39.41 67.487 39.19C67.367 38.9633 67.3003 38.69 67.287 38.37H68.137ZM73.217 33.9H72.367V32.86H73.217V33.9ZM72.367 34.83H73.217V40H72.367V34.83ZM75.4138 34.83H76.4438V35.58H75.4138V38.79C75.4138 38.89 75.4204 38.97 75.4338 39.03C75.4538 39.09 75.4871 39.1367 75.5338 39.17C75.5804 39.2033 75.6438 39.2267 75.7238 39.24C75.8104 39.2467 75.9204 39.25 76.0538 39.25H76.4438V40H75.7938C75.5738 40 75.3838 39.9867 75.2238 39.96C75.0704 39.9267 74.9438 39.87 74.8438 39.79C74.7504 39.71 74.6804 39.5967 74.6338 39.45C74.5871 39.3033 74.5638 39.11 74.5638 38.87V35.58H73.6838V34.83H74.5638V33.28H75.4138V34.83ZM80.678 36.92C80.6647 36.72 80.618 36.53 80.538 36.35C80.4647 36.17 80.3614 36.0167 80.228 35.89C80.1014 35.7567 79.948 35.6533 79.768 35.58C79.5947 35.5 79.4014 35.46 79.188 35.46C78.968 35.46 78.768 35.5 78.588 35.58C78.4147 35.6533 78.2647 35.7567 78.138 35.89C78.0114 36.0233 77.9114 36.18 77.838 36.36C77.7647 36.5333 77.7214 36.72 77.708 36.92H80.678ZM81.498 38.36C81.3847 38.94 81.1347 39.3767 80.748 39.67C80.3614 39.9633 79.8747 40.11 79.288 40.11C78.8747 40.11 78.5147 40.0433 78.208 39.91C77.908 39.7767 77.6547 39.59 77.448 39.35C77.2414 39.11 77.0847 38.8233 76.978 38.49C76.878 38.1567 76.8214 37.7933 76.808 37.4C76.808 37.0067 76.868 36.6467 76.988 36.32C77.108 35.9933 77.2747 35.71 77.488 35.47C77.708 35.23 77.9647 35.0433 78.258 34.91C78.558 34.7767 78.8847 34.71 79.238 34.71C79.698 34.71 80.078 34.8067 80.378 35C80.6847 35.1867 80.928 35.4267 81.108 35.72C81.2947 36.0133 81.4214 36.3333 81.488 36.68C81.5614 37.0267 81.5914 37.3567 81.578 37.67H77.708C77.7014 37.8967 77.728 38.1133 77.788 38.32C77.848 38.52 77.9447 38.7 78.078 38.86C78.2114 39.0133 78.3814 39.1367 78.588 39.23C78.7947 39.3233 79.038 39.37 79.318 39.37C79.678 39.37 79.9714 39.2867 80.198 39.12C80.4314 38.9533 80.5847 38.7 80.658 38.36H81.498ZM85.2623 37.46C85.2623 37.7 85.2923 37.9367 85.3523 38.17C85.419 38.3967 85.5157 38.6 85.6423 38.78C85.7757 38.96 85.9423 39.1033 86.1423 39.21C86.349 39.3167 86.589 39.37 86.8623 39.37C87.149 39.37 87.3923 39.3133 87.5923 39.2C87.7923 39.0867 87.9557 38.94 88.0823 38.76C88.209 38.5733 88.299 38.3633 88.3523 38.13C88.4123 37.8967 88.4423 37.66 88.4423 37.42C88.4423 37.1667 88.4123 36.9233 88.3523 36.69C88.2923 36.45 88.1957 36.24 88.0623 36.06C87.9357 35.88 87.769 35.7367 87.5623 35.63C87.3557 35.5167 87.1057 35.46 86.8123 35.46C86.5257 35.46 86.2823 35.5167 86.0823 35.63C85.8823 35.7433 85.7223 35.8933 85.6023 36.08C85.4823 36.2667 85.3957 36.48 85.3423 36.72C85.289 36.96 85.2623 37.2067 85.2623 37.46ZM89.2623 40H88.4123V39.3H88.3923C88.2523 39.5867 88.0323 39.7933 87.7323 39.92C87.4323 40.0467 87.1023 40.11 86.7423 40.11C86.3423 40.11 85.9923 40.0367 85.6923 39.89C85.399 39.7433 85.1523 39.5467 84.9523 39.3C84.759 39.0533 84.6123 38.7667 84.5123 38.44C84.4123 38.1133 84.3623 37.7667 84.3623 37.4C84.3623 37.0333 84.409 36.6867 84.5023 36.36C84.6023 36.0333 84.749 35.75 84.9423 35.51C85.1423 35.2633 85.389 35.07 85.6823 34.93C85.9823 34.7833 86.329 34.71 86.7223 34.71C86.8557 34.71 86.999 34.7233 87.1523 34.75C87.3057 34.7767 87.459 34.8233 87.6123 34.89C87.7657 34.95 87.909 35.0333 88.0423 35.14C88.1823 35.24 88.299 35.3667 88.3923 35.52H88.4123V32.86H89.2623V40ZM93.8601 36.92C93.8467 36.72 93.8001 36.53 93.7201 36.35C93.6467 36.17 93.5434 36.0167 93.4101 35.89C93.2834 35.7567 93.1301 35.6533 92.9501 35.58C92.7767 35.5 92.5834 35.46 92.3701 35.46C92.1501 35.46 91.9501 35.5 91.7701 35.58C91.5967 35.6533 91.4467 35.7567 91.3201 35.89C91.1934 36.0233 91.0934 36.18 91.0201 36.36C90.9467 36.5333 90.9034 36.72 90.8901 36.92H93.8601ZM94.6801 38.36C94.5667 38.94 94.3167 39.3767 93.9301 39.67C93.5434 39.9633 93.0567 40.11 92.4701 40.11C92.0567 40.11 91.6967 40.0433 91.3901 39.91C91.0901 39.7767 90.8367 39.59 90.6301 39.35C90.4234 39.11 90.2667 38.8233 90.1601 38.49C90.0601 38.1567 90.0034 37.7933 89.9901 37.4C89.9901 37.0067 90.0501 36.6467 90.1701 36.32C90.2901 35.9933 90.4567 35.71 90.6701 35.47C90.8901 35.23 91.1467 35.0433 91.4401 34.91C91.7401 34.7767 92.0667 34.71 92.4201 34.71C92.8801 34.71 93.2601 34.8067 93.5601 35C93.8667 35.1867 94.1101 35.4267 94.2901 35.72C94.4767 36.0133 94.6034 36.3333 94.6701 36.68C94.7434 37.0267 94.7734 37.3567 94.7601 37.67H90.8901C90.8834 37.8967 90.9101 38.1133 90.9701 38.32C91.0301 38.52 91.1267 38.7 91.2601 38.86C91.3934 39.0133 91.5634 39.1367 91.7701 39.23C91.9767 39.3233 92.2201 39.37 92.5001 39.37C92.8601 39.37 93.1534 39.2867 93.3801 39.12C93.6134 38.9533 93.7667 38.7 93.8401 38.36H94.6801ZM97.6712 40H96.7612L94.8412 34.83H95.7912L97.2412 39.14H97.2612L98.6712 34.83H99.5612L97.6712 40ZM103.631 36.92C103.618 36.72 103.571 36.53 103.491 36.35C103.418 36.17 103.315 36.0167 103.181 35.89C103.055 35.7567 102.901 35.6533 102.721 35.58C102.548 35.5 102.355 35.46 102.141 35.46C101.921 35.46 101.721 35.5 101.541 35.58C101.368 35.6533 101.218 35.7567 101.091 35.89C100.965 36.0233 100.865 36.18 100.791 36.36C100.718 36.5333 100.675 36.72 100.661 36.92H103.631ZM104.451 38.36C104.338 38.94 104.088 39.3767 103.701 39.67C103.315 39.9633 102.828 40.11 102.241 40.11C101.828 40.11 101.468 40.0433 101.161 39.91C100.861 39.7767 100.608 39.59 100.401 39.35C100.195 39.11 100.038 38.8233 99.9312 38.49C99.8312 38.1567 99.7745 37.7933 99.7612 37.4C99.7612 37.0067 99.8212 36.6467 99.9412 36.32C100.061 35.9933 100.228 35.71 100.441 35.47C100.661 35.23 100.918 35.0433 101.211 34.91C101.511 34.7767 101.838 34.71 102.191 34.71C102.651 34.71 103.031 34.8067 103.331 35C103.638 35.1867 103.881 35.4267 104.061 35.72C104.248 36.0133 104.375 36.3333 104.441 36.68C104.515 37.0267 104.545 37.3567 104.531 37.67H100.661C100.655 37.8967 100.681 38.1133 100.741 38.32C100.801 38.52 100.898 38.7 101.031 38.86C101.165 39.0133 101.335 39.1367 101.541 39.23C101.748 39.3233 101.991 39.37 102.271 39.37C102.631 39.37 102.925 39.2867 103.151 39.12C103.385 38.9533 103.538 38.7 103.611 38.36H104.451ZM105.162 32.86H106.012V40H105.162V32.86ZM107.649 37.42C107.649 37.7333 107.689 38.0133 107.769 38.26C107.856 38.5 107.972 38.7033 108.119 38.87C108.266 39.03 108.436 39.1533 108.629 39.24C108.829 39.3267 109.039 39.37 109.259 39.37C109.479 39.37 109.686 39.3267 109.879 39.24C110.079 39.1533 110.252 39.03 110.399 38.87C110.546 38.7033 110.659 38.5 110.739 38.26C110.826 38.0133 110.869 37.7333 110.869 37.42C110.869 37.1067 110.826 36.83 110.739 36.59C110.659 36.3433 110.546 36.1367 110.399 35.97C110.252 35.8033 110.079 35.6767 109.879 35.59C109.686 35.5033 109.479 35.46 109.259 35.46C109.039 35.46 108.829 35.5033 108.629 35.59C108.436 35.6767 108.266 35.8033 108.119 35.97C107.972 36.1367 107.856 36.3433 107.769 36.59C107.689 36.83 107.649 37.1067 107.649 37.42ZM106.749 37.42C106.749 37.04 106.802 36.6867 106.909 36.36C107.016 36.0267 107.176 35.74 107.389 35.5C107.602 35.2533 107.866 35.06 108.179 34.92C108.492 34.78 108.852 34.71 109.259 34.71C109.672 34.71 110.032 34.78 110.339 34.92C110.652 35.06 110.916 35.2533 111.129 35.5C111.342 35.74 111.502 36.0267 111.609 36.36C111.716 36.6867 111.769 37.04 111.769 37.42C111.769 37.8 111.716 38.1533 111.609 38.48C111.502 38.8067 111.342 39.0933 111.129 39.34C110.916 39.58 110.652 39.77 110.339 39.91C110.032 40.0433 109.672 40.11 109.259 40.11C108.852 40.11 108.492 40.0433 108.179 39.91C107.866 39.77 107.602 39.58 107.389 39.34C107.176 39.0933 107.016 38.8067 106.909 38.48C106.802 38.1533 106.749 37.8 106.749 37.42ZM112.501 34.83H113.351V35.53H113.371C113.511 35.2433 113.731 35.0367 114.031 34.91C114.331 34.7767 114.661 34.71 115.021 34.71C115.421 34.71 115.768 34.7833 116.061 34.93C116.361 35.0767 116.608 35.2767 116.801 35.53C117.001 35.7767 117.151 36.0633 117.251 36.39C117.351 36.7167 117.401 37.0633 117.401 37.43C117.401 37.7967 117.351 38.1433 117.251 38.47C117.158 38.7967 117.011 39.0833 116.811 39.33C116.618 39.57 116.371 39.76 116.071 39.9C115.778 40.04 115.435 40.11 115.041 40.11C114.915 40.11 114.771 40.0967 114.611 40.07C114.458 40.0433 114.305 40 114.151 39.94C113.998 39.88 113.851 39.8 113.711 39.7C113.578 39.5933 113.465 39.4633 113.371 39.31H113.351V41.97H112.501V34.83ZM116.501 37.37C116.501 37.13 116.468 36.8967 116.401 36.67C116.341 36.4367 116.245 36.23 116.111 36.05C115.985 35.87 115.818 35.7267 115.611 35.62C115.411 35.5133 115.175 35.46 114.901 35.46C114.615 35.46 114.371 35.5167 114.171 35.63C113.971 35.7433 113.808 35.8933 113.681 36.08C113.555 36.26 113.461 36.4667 113.401 36.7C113.348 36.9333 113.321 37.17 113.321 37.41C113.321 37.6633 113.351 37.91 113.411 38.15C113.471 38.3833 113.565 38.59 113.691 38.77C113.825 38.95 113.995 39.0967 114.201 39.21C114.408 39.3167 114.658 39.37 114.951 39.37C115.245 39.37 115.488 39.3133 115.681 39.2C115.881 39.0867 116.041 38.9367 116.161 38.75C116.281 38.5633 116.368 38.35 116.421 38.11C116.475 37.87 116.501 37.6233 116.501 37.37ZM118.099 34.83H118.899V35.59H118.919C119.306 35.0033 119.862 34.71 120.589 34.71C120.909 34.71 121.199 34.7767 121.459 34.91C121.719 35.0433 121.902 35.27 122.009 35.59C122.182 35.31 122.409 35.0933 122.689 34.94C122.976 34.7867 123.289 34.71 123.629 34.71C123.889 34.71 124.122 34.74 124.329 34.8C124.542 34.8533 124.722 34.94 124.869 35.06C125.022 35.18 125.139 35.3367 125.219 35.53C125.306 35.7167 125.349 35.9433 125.349 36.21V40H124.499V36.61C124.499 36.45 124.486 36.3 124.459 36.16C124.432 36.02 124.382 35.9 124.309 35.8C124.236 35.6933 124.132 35.61 123.999 35.55C123.872 35.49 123.706 35.46 123.499 35.46C123.079 35.46 122.749 35.58 122.509 35.82C122.269 36.06 122.149 36.38 122.149 36.78V40H121.299V36.61C121.299 36.4433 121.282 36.29 121.249 36.15C121.222 36.01 121.172 35.89 121.099 35.79C121.026 35.6833 120.926 35.6033 120.799 35.55C120.679 35.49 120.522 35.46 120.329 35.46C120.082 35.46 119.869 35.51 119.689 35.61C119.516 35.71 119.372 35.83 119.259 35.97C119.152 36.11 119.072 36.2567 119.019 36.41C118.972 36.5567 118.949 36.68 118.949 36.78V40H118.099V34.83ZM129.914 36.92C129.901 36.72 129.854 36.53 129.774 36.35C129.701 36.17 129.598 36.0167 129.464 35.89C129.338 35.7567 129.184 35.6533 129.004 35.58C128.831 35.5 128.638 35.46 128.424 35.46C128.204 35.46 128.004 35.5 127.824 35.58C127.651 35.6533 127.501 35.7567 127.374 35.89C127.248 36.0233 127.148 36.18 127.074 36.36C127.001 36.5333 126.958 36.72 126.944 36.92H129.914ZM130.734 38.36C130.621 38.94 130.371 39.3767 129.984 39.67C129.598 39.9633 129.111 40.11 128.524 40.11C128.111 40.11 127.751 40.0433 127.444 39.91C127.144 39.7767 126.891 39.59 126.684 39.35C126.478 39.11 126.321 38.8233 126.214 38.49C126.114 38.1567 126.058 37.7933 126.044 37.4C126.044 37.0067 126.104 36.6467 126.224 36.32C126.344 35.9933 126.511 35.71 126.724 35.47C126.944 35.23 127.201 35.0433 127.494 34.91C127.794 34.7767 128.121 34.71 128.474 34.71C128.934 34.71 129.314 34.8067 129.614 35C129.921 35.1867 130.164 35.4267 130.344 35.72C130.531 36.0133 130.658 36.3333 130.724 36.68C130.798 37.0267 130.828 37.3567 130.814 37.67H126.944C126.938 37.8967 126.964 38.1133 127.024 38.32C127.084 38.52 127.181 38.7 127.314 38.86C127.448 39.0133 127.618 39.1367 127.824 39.23C128.031 39.3233 128.274 39.37 128.554 39.37C128.914 39.37 129.208 39.2867 129.434 39.12C129.668 38.9533 129.821 38.7 129.894 38.36H130.734ZM131.395 34.83H132.195V35.65H132.215C132.569 35.0233 133.129 34.71 133.895 34.71C134.235 34.71 134.519 34.7567 134.745 34.85C134.972 34.9433 135.155 35.0733 135.295 35.24C135.435 35.4067 135.532 35.6067 135.585 35.84C135.645 36.0667 135.675 36.32 135.675 36.6V40H134.825V36.5C134.825 36.18 134.732 35.9267 134.545 35.74C134.359 35.5533 134.102 35.46 133.775 35.46C133.515 35.46 133.289 35.5 133.095 35.58C132.909 35.66 132.752 35.7733 132.625 35.92C132.499 36.0667 132.402 36.24 132.335 36.44C132.275 36.6333 132.245 36.8467 132.245 37.08V40H131.395V34.83ZM137.832 34.83H138.862V35.58H137.832V38.79C137.832 38.89 137.839 38.97 137.852 39.03C137.872 39.09 137.905 39.1367 137.952 39.17C137.999 39.2033 138.062 39.2267 138.142 39.24C138.229 39.2467 138.339 39.25 138.472 39.25H138.862V40H138.212C137.992 40 137.802 39.9867 137.642 39.96C137.489 39.9267 137.362 39.87 137.262 39.79C137.169 39.71 137.099 39.5967 137.052 39.45C137.005 39.3033 136.982 39.11 136.982 38.87V35.58H136.102V34.83H136.982V33.28H137.832V34.83Z" fill="black"/>
<path d="M14 15C21.1469 15 27 21.0108 27 28.5C27 35.9892 21.1469 42 14 42C6.85308 42 1 35.9892 1 28.5C1 21.0108 6.85308 15 14 15Z" stroke="black" stroke-width="2"/>
<path d="M29 15C36.1469 15 42 21.0108 42 28.5C42 35.9892 36.1469 42 29 42C21.8531 42 16 35.9892 16 28.5C16 21.0108 21.8531 15 29 15Z" stroke="black" stroke-width="2"/>
</svg>
