<svg width="249" height="250" viewBox="0 0 249 250" fill="none" xmlns="http://www.w3.org/2000/svg">
<path d="M233.594 62.6904C219.383 62.6904 206.272 57.9639 195.743 49.9902C183.667 40.8496 174.991 27.4414 171.927 11.9873C171.169 8.16895 170.76 4.22852 170.721 0.19043H130.127V111.558L130.079 172.559C130.079 188.867 119.501 202.695 104.838 207.559C100.583 208.97 95.9871 209.639 91.2016 209.375C85.0933 209.038 79.3692 207.188 74.3941 204.199C63.8067 197.842 56.6285 186.309 56.434 173.115C56.1276 152.495 72.7309 135.684 93.2539 135.684C97.305 135.684 101.196 136.348 104.838 137.554V107.114V96.1719C100.996 95.6006 97.0862 95.3027 93.1323 95.3027C70.6688 95.3027 49.6594 104.678 34.6416 121.567C23.2907 134.331 16.4821 150.615 15.4317 167.69C14.0554 190.122 22.2305 211.445 38.0848 227.178C40.4143 229.487 42.8606 231.631 45.4187 233.608C59.0115 244.111 75.6294 249.805 93.1323 249.805C97.0862 249.805 100.996 249.512 104.838 248.94C121.189 246.509 136.274 238.994 148.18 227.178C162.809 212.661 170.891 193.389 170.979 172.876L170.77 81.7822C177.749 87.1875 185.379 91.6602 193.569 95.1318C206.306 100.527 219.811 103.262 233.71 103.257V73.6621V62.6807C233.72 62.6904 233.603 62.6904 233.594 62.6904Z" fill="white"/>
</svg>
