<svg width="416" height="291" viewBox="0 0 416 291" fill="none" xmlns="http://www.w3.org/2000/svg">
<path d="M407.383 45.6947C402.597 27.9025 388.569 13.8771 370.779 9.08616C338.28 0.193848 208.279 0.193848 208.279 0.193848C208.279 0.193848 78.2836 0.193848 45.784 8.74902C28.3366 13.5348 13.9664 27.905 9.18057 45.6947C0.62793 78.1917 0.62793 145.586 0.62793 145.586C0.62793 145.586 0.62793 213.32 9.18057 245.478C13.9715 263.267 27.9943 277.293 45.7866 282.084C78.6258 290.978 208.284 290.978 208.284 290.978C208.284 290.978 338.28 290.978 370.779 282.423C388.571 277.635 402.597 263.61 407.388 245.82C415.938 213.32 415.938 145.928 415.938 145.928C415.938 145.928 416.28 78.1917 407.383 45.6947ZM166.89 207.848V83.3248L274.992 145.586L166.89 207.848Z" fill="white"/>
</svg>
